<svg width="512" height="512" xmlns="http://www.w3.org/2000/svg">

 <g>
  <title>background</title>
  <rect fill="none" id="canvas_background" height="402" width="582" y="-1" x="-1"/>
 </g>
 <g>
  <title>Layer 1</title>
  <path fill="#a52a2a" id="svg_1" d="m422.2344,309.1789a50.2561,50.2561 0 0 0 -38.1114,-48.84a128.8629,128.8629 0 0 0 -91.2515,-111.0436a37.6337,37.6337 0 0 0 -28.6347,-44.2227c0.0163,-0.208 0.0318,-0.4161 0.0318,-0.6282l0,-7.32a68.927,68.927 0 0 1 11.247,-37.7871l1.3579,-2.0791a8,8 0 1 0 -13.3955,-8.75l-1.358,2.0789a84.887,84.887 0 0 0 -13.8515,46.5371l0,7.32c0,0.1705 0.015,0.3374 0.0255,0.5054a37.6422,37.6422 0 0 0 -29.1656,44.3456a128.8626,128.8626 0 0 0 -91.2514,111.0439a50.3424,50.3424 0 0 0 7.3085,98.9352l21.17,81.1185a35.7654,35.7654 0 0 0 34.5952,26.7256l130.0986,0a35.7654,35.7654 0 0 0 34.5952,-26.7256l21.17,-81.1185a50.4064,50.4064 0 0 0 45.4199,-50.0954zm-231.2837,141.94a19.7608,19.7608 0 0 1 -19.1138,-14.7666l-20.3923,-78.1389a50.5057,50.5057 0 0 0 23.6532,-12.8738l27.6058,105.7793l-11.7529,0zm36.5556,0l-0.0063,-0.03l-24.4451,-93.6689a50.0551,50.0551 0 0 0 40.9451,-5.5577l0,99.2561l-16.4937,0.0005zm56.9874,0l-16.4937,0l0,-99.256a50.0549,50.0549 0 0 0 40.9452,5.557l-24.4452,93.6682l-0.0063,0.0308zm55.6694,-14.7666a19.7608,19.7608 0 0 1 -19.1138,14.7666l-11.7529,0l27.6058,-105.7793a50.5057,50.5057 0 0 0 23.6532,12.8738l-20.3923,78.1389zm31.7324,-92.834a34.4063,34.4063 0 0 1 -31.334,-20.2949a8,8 0 0 0 -14.5957,0a34.3362,34.3362 0 0 1 -62.6679,0a8,8 0 0 0 -14.5958,0a34.3362,34.3362 0 0 1 -62.6679,0a8,8 0 0 0 -14.5957,0a34.3375,34.3375 0 1 1 -35.1421,-48.167a8.0006,8.0006 0 0 0 7.1162,-7.5908a112.4426,112.4426 0 0 1 82.2774,-103.4232a37.5793,37.5793 0 0 0 60.62,0a112.4426,112.4426 0 0 1 82.2775,103.4227a8.0006,8.0006 0 0 0 7.1162,7.5908a34.3367,34.3367 0 0 1 -3.8081,68.4619l-0.0001,0.0005z"/>
  <path fill="#a52a2a" id="svg_2" d="m207.142524,203.885l-16.9409,16.94a8,8 0 0 0 11.3134,11.315l16.941,-16.9405a8,8 0 1 0 -11.3135,-11.3145z"/>
  <path fill="#a52a2a" id="svg_3" d="m311.695337,211.718537l-16.9409,16.94a8,8 0 0 0 11.3135,11.315l16.9409,-16.9405a8,8 0 1 0 -11.3135,-11.3144l0,-0.0001z"/>
  <path fill="#a52a2a" id="svg_4" d="m244.557795,248.693598a8,8 0 1 0 -11.3144,11.3125l16.94,16.9414a8,8 0 1 0 11.3144,-11.3125l-16.94,-16.9414z"/>
 </g>
</svg>